<!DOCTYPE svg PUBLIC "-//W3C//DTD SVG 1.1//EN" "http://www.w3.org/Graphics/SVG/1.1/DTD/svg11.dtd">
<!-- Uploaded to: SVG Repo, www.svgrepo.com, Transformed by: SVG Repo Mixer Tools -->
<svg fill="#000000" width="800px" height="800px" viewBox="0 0 32 32" version="1.1" xmlns="http://www.w3.org/2000/svg">
<g id="SVGRepo_bgCarrier" stroke-width="0"/>
<g id="SVGRepo_tracerCarrier" stroke-linecap="round" stroke-linejoin="round"/>
<g id="SVGRepo_iconCarrier"> <title>lightning</title> <path d="M6.186 8.327c5.864 4.873 5.413 6.508 0.691 13.048 2.567 1.809 4.905 6.725 4.077 9.513h-10.017l0.381-29.554c4.402 0.426 7.54 4.391 4.869 6.993h-0zM10.916 1.136c-4.205 8.43 5.155 16.652 15.868 13.686-0.569 4.783-0.060 9.45 3.806 9.641v-23.327l-19.674 0zM15.381 30.839c-2.714-1.464-3.548-3.323-3.906-5.083 4.039-0.458 7.396 0.919 8.588 5.133l-4.682-0.049zM12.955 14.721c-6.24 7.592-2.144 11.476 5.067 9.696 1.053 2.238 2.283 4.437 4.508 6.415h4.264c-0.62-0.876-1.44-1.702-2.586-2.446 2.26-3.925 2.533-7.497 0.352-11.679-3.153-0.496-5.117-0.043-8.138 0.911-0.809-1.467-2.106-2.152-3.467-2.896l0 0zM29.030 30.747c-3.786-1.044-3.415-4.818-1.738-6.648 1.802 0.959 2.735 1.985 3.591 3.791v2.927l-1.852-0.070zM30.711 24.375v-7.404z"/> </g>
</svg>