<!DOCTYPE svg PUBLIC "-//W3C//DTD SVG 1.1//EN" "http://www.w3.org/Graphics/SVG/1.1/DTD/svg11.dtd">
<!-- Uploaded to: SVG Repo, www.svgrepo.com, Transformed by: SVG Repo Mixer Tools -->
<svg width="800px" height="800px" viewBox="0 0 24 24" xmlns="http://www.w3.org/2000/svg" fill="#000000">
<g id="SVGRepo_bgCarrier" stroke-width="0"/>
<g id="SVGRepo_tracerCarrier" stroke-linecap="round" stroke-linejoin="round"/>
<g id="SVGRepo_iconCarrier">
<path d="M21 11.5a1.504 1.504 0 0 0-1.5-1.5H18V7A6 6 0 0 0 6 7v3H4.5A1.504 1.504 0 0 0 3 11.5v10A1.504 1.504 0 0 0 4.5 23h15a1.504 1.504 0 0 0 1.5-1.5zM9 7a3 3 0 0 1 6 0v3H9zm4 8h-1v1h1v1h-1v1h1v1h-1v1h-1v-5h1v-1h1z"/>
<path fill="none" d="M0 0h24v24H0z"/>
</g>
</svg>