<!DOCTYPE svg PUBLIC "-//W3C//DTD SVG 1.1//EN" "http://www.w3.org/Graphics/SVG/1.1/DTD/svg11.dtd">
<!-- Uploaded to: SVG Repo, www.svgrepo.com, Transformed by: SVG Repo Mixer Tools -->
<svg width="800px" height="800px" viewBox="0 0 24 24" fill="none" xmlns="http://www.w3.org/2000/svg">
<g id="SVGRepo_bgCarrier" stroke-width="0"/>
<g id="SVGRepo_tracerCarrier" stroke-linecap="round" stroke-linejoin="round"/>
<g id="SVGRepo_iconCarrier"> <g id="style=fill"> <g id="lock-line"> <path id="vector (Stroke)" fill-rule="evenodd" clip-rule="evenodd" d="M7.22703 3.22703C8.4929 1.96116 10.2098 1.25 12 1.25C13.7902 1.25 15.5071 1.96116 16.773 3.22703C18.0388 4.4929 18.75 6.20979 18.75 8C18.75 8.41421 18.4142 8.75 18 8.75C17.5858 8.75 17.25 8.41421 17.25 8C17.25 6.60761 16.6969 5.27226 15.7123 4.28769C14.7277 3.30312 13.3924 2.75 12 2.75C10.6076 2.75 9.27226 3.30312 8.28769 4.28769C7.30312 5.27225 6.75 6.60761 6.75 8C6.75 8.41421 6.41421 8.75 6 8.75C5.58579 8.75 5.25 8.41421 5.25 8C5.25 6.20979 5.96116 4.4929 7.22703 3.22703Z" fill="#000000"/> <path id="Subtract" fill-rule="evenodd" clip-rule="evenodd" d="M7 7.25C3.82436 7.25 1.25 9.82436 1.25 13V17C1.25 20.1756 3.82436 22.75 7 22.75H17C20.1756 22.75 22.75 20.1756 22.75 17V13C22.75 9.82436 20.1756 7.25 17 7.25H7ZM12.75 13C12.75 12.5858 12.4142 12.25 12 12.25C11.5858 12.25 11.25 12.5858 11.25 13V17C11.25 17.4142 11.5858 17.75 12 17.75C12.4142 17.75 12.75 17.4142 12.75 17V13Z" fill="#000000"/> </g> </g> </g>
</svg>